<svg width="0" height="0" class="hidden">

  <symbol xmlns="http://www.w3.org/2000/svg" viewBox="0 0 24 24" id="rocket">
    <path d="M19.957 4.035c-.345-.024-.682-.035-1.012-.035-7.167 0-11.248 5.464-12.732 9.861l3.939 3.938c4.524-1.619 9.848-5.549 9.848-12.639 0-.367-.014-.741-.043-1.125zm-9.398 11.815l-2.402-2.402c1.018-2.383 3.91-7.455 10.166-7.767-.21 4.812-3.368 8.276-7.764 10.169zm4.559 1.282c-.456.311-.908.592-1.356.842-.156.742-.552 1.535-1.126 2.21-.001-.48-.135-.964-.369-1.449-.413.187-.805.348-1.179.49.551 1.424-.01 2.476-.763 3.462 1.08-.081 2.214-.61 3.106-1.504.965-.962 1.64-2.352 1.687-4.051zm-9.849-5.392c-.482-.232-.965-.364-1.443-.367.669-.567 1.453-.961 2.188-1.121.262-.461.556-.915.865-1.361-1.699.046-3.09.723-4.054 1.686-.893.893-1.421 2.027-1.503 3.106.986-.753 2.039-1.313 3.463-.762.145-.391.305-.785.484-1.181zm6.448.553c-.326-.325-.326-.853 0-1.178.325-.326.853-.326 1.178 0 .326.326.326.854 0 1.179-.326.325-.853.325-1.178-.001zm4.124-4.125c-.65-.65-1.706-.65-2.356 0-.651.651-.651 1.707 0 2.357.65.651 1.706.651 2.357 0 .65-.65.65-1.706-.001-2.357zm-1.591 1.592c-.228-.228-.228-.598 0-.825.227-.228.598-.228.826 0 .227.227.226.597 0 .825-.228.227-.598.227-.826 0zm-12.609 10.555l-.755-.755 4.341-4.323.755.755-4.341 4.323zm4.148 1.547l-.755-.755 3.03-3.054.756.755-3.031 3.054zm-5.034 2.138l-.755-.755 5.373-5.364.756.755-5.374 5.364zm21.083-14.291c-.188.618-.673 1.102-1.291 1.291.618.188 1.103.672 1.291 1.291.189-.619.673-1.103 1.291-1.291-.618-.188-1.102-.672-1.291-1.291zm-14.655-6.504c-.247.81-.881 1.443-1.69 1.69.81.247 1.443.881 1.69 1.69.248-.809.881-1.443 1.69-1.69-.81-.247-1.442-.88-1.69-1.69zm-1.827-3.205c-.199.649-.706 1.157-1.356 1.355.65.199 1.157.707 1.356 1.355.198-.649.706-1.157 1.354-1.355-.648-.198-1.155-.706-1.354-1.355zm5.387 0c-.316 1.035-1.127 1.846-2.163 2.163 1.036.316 1.847 1.126 2.163 2.163.316-1.036 1.127-1.846 2.162-2.163-1.035-.317-1.845-1.128-2.162-2.163zm11.095 13.64c-.316 1.036-1.127 1.846-2.163 2.163 1.036.316 1.847 1.162 2.163 2.197.316-1.036 1.127-1.881 2.162-2.197-1.035-.317-1.846-1.127-2.162-2.163z"></path>
  </symbol>

  <symbol version="1.1" xmlns="http://www.w3.org/2000/svg" viewBox="0 0 1024 1024" id="cancel">
    <path d="M777.856 280.192l-33.92-33.952-231.872 231.872-231.84-231.872-33.984 33.888 231.872 231.904-231.84 231.84 33.888 33.984 231.904-231.904 231.84 231.872 33.952-33.888-231.872-231.904z"></path>
  </symbol>
  <symbol xmlns="http://www.w3.org/2000/svg" viewBox="0 0 24 24" id="chevron">
    <polygon points="12 17.414 3.293 8.707 4.707 7.293 12 14.586 19.293 7.293 20.707 8.707 12 17.414"></polygon>
  </symbol>
  <symbol version="1.1" id="easy" xmlns="http://www.w3.org/2000/svg" xmlns:xlink="http://www.w3.org/1999/xlink" xml:space="preserve" viewBox="0 0 512 512">
    <g>
      <path d="M459.12,295.188c8.203-9.359,13.609-21.297,13.609-34.469c0-33.922-27.594-61.516-61.5-61.516h-78.531
		c-17.25-0.797-21.453-4.063-21.625-4.203l-0.141-0.188c0.469-4.563,8.375-15.719,12.25-21.156
		c5.563-7.813,10.813-15.203,13.813-23.406l1.328-3.594c7.672-20.641,21.969-59.063,6.469-103.219
		C335.401,16.656,314.51,0,290.292,0c-28.203,0-51.656,22.563-57.016,54.891c-1.797,10.875-25.641,51.875-71.156,105.391
		c-12.594,14.813-26.797,27.125-41.828,40.156c-11.875,10.281-24.156,20.906-37.172,33.922
		c-34.141,34.125-50.391,91.984-41.406,147.359c7.766,47.938,32.781,84.688,70.438,103.516
		c30.844,15.422,90.734,24.047,136.406,25.734c19.109,0.703,33.516,1.031,45.328,1.031c22.594,0,33.828-1.266,48.047-2.875
		l4.797-0.531l0.813-0.094l23.078-3.344l0.438-0.063c29.891-4.875,51.578-30.344,51.578-60.563l-0.047-2.172
		c17.454-10.828,28.813-30.078,28.813-52.031c0-7.438-1.141-13.906-3.109-19.516c11.922-11.219,19.344-27.109,19.344-44.609
		C467.636,315.031,464.558,304.375,459.12,295.188z M412.838,299.25h18c7.359,6.656,12.016,16.219,12.016,26.953
		c0,11.453-5.359,21.547-13.609,28.234H405.12c-4.563,0-8.25,3.688-8.25,8.25s3.688,8.266,8.25,8.266h15.063
		c5,5.609,6.438,12.234,6.438,19.375c0,11.391-5.297,21.453-13.469,28.125h-23.203c-4.578,0-8.266,3.703-8.266,8.266
		s3.688,8.25,8.266,8.25h6.531c0.875,3.047,1.375,6.234,1.375,9.563c0,18.25-13.328,33.25-30.781,36.094l-23.078,3.344
		c-16.719,1.844-26.531,3.25-50.109,3.25c-11.063,0-25.156-0.313-44.406-1.031c-43.641-1.609-99.625-9.813-126.25-23.125
		c-74.531-37.266-74.578-159.188-22.578-211.188c29.359-29.359,56.469-47.438,80.344-75.531
		c36.891-43.391,73.016-94.906,76.734-117.406c3.656-22.063,17.984-34.156,32.563-34.156c12.25,0,24.688,8.547,31.125,26.875
		c13.406,38.219-1.203,72.25-7.688,90.063c-6.531,17.844-42.547,46.813-20.594,70.359c8.156,8.75,24.172,11.281,39.016,11.922
		h79.078c20.297,0,36.719,16.438,36.719,36.719c0,8.672-4.906,16.469-11.406,22h-23.704c-4.563,0-8.266,3.688-8.266,8.25
		S408.276,299.25,412.838,299.25z"></path>
    </g>
  </symbol>
  <symbol id="graph" version="1.1" xml:space="preserve" xmlns="http://www.w3.org/2000/svg" xmlnsCc="http://creativecommons.org/ns#" xmlnsDc="http://purl.org/dc/elements/1.1/" xmlnsRdf="http://www.w3.org/1999/02/22-rdf-syntax-ns#" xmlnsSvg="http://www.w3.org/2000/svg" viewBox="0 0 281.25 281.25">
    <defs id="defs4"></defs>
    <g id="layer1" transform="translate(6693.6064,-5205.6831)">
      <path d="m -6520.8385,5246.3303 a 4.6879687,4.6879687 0 0 0 -4.6875,4.6875 v 49.552 h -59.599 a 4.6879687,4.6879687 0 0 0 -4.6875,4.6875 v 43.5279 h -59.5971 a 4.6879687,4.6879687 0 0 0 -4.6875,4.6875 v 88.1268 a 4.6879687,4.6879687 0 0 0 4.6875,4.6875 h 64.2846 64.2865 64.2865 a 4.6879687,4.6879687 0 0 0 4.6875,-4.6875 v -190.5817 a 4.6879687,4.6879687 0 0 0 -4.6875,-4.6875 z m 4.6875,9.375 h 54.9115 v 181.2067 h -54.9115 v -131.6547 z m -64.2865,54.2395 h 54.9115 v 126.9672 h -54.9115 v -83.4393 z m -64.2846,48.2154 h 54.9096 v 78.7518 h -54.9096 z" id="rect1858"></path>
    </g>
  </symbol>
  <symbol version="1.1" xml:space="preserve" xmlns="http://www.w3.org/2000/svg" xmlns:xlink="http://www.w3.org/1999/xlink" viewBox="0 0 50 50" id="hyphen">
    <g id="Layer_1">
      <rect height="2" width="48" x="1" y="24"></rect>
    </g>
    <g></g>
  </symbol>
  <symbol xmlns="http://www.w3.org/2000/svg" xml:space="preserve" version="1.1" xmlns:xlink="http://www.w3.org/1999/xlink" viewBox="0 0 2565 1858" id="menu">
    <defs></defs>
    <g id="Layer_x0020_1">
      <metadata id="CorelCorpID_0Corel-Layer"></metadata>
      <g id="_610231568">
        <path d="M0 100c0,79 46,120 120,120l2324 0c32,0 65,-11 84,-27 7,-5 20,-22 25,-30 6,-9 10,-23 12,-38l0 -27c-5,-47 -38,-98 -126,-98l-2314 0c-67,0 -125,38 -125,100z"></path>
        <path d="M0 1733l0 25c0,58 56,100 115,100l2334 0c60,0 116,-42 116,-100l0 -24c-1,-13 -4,-20 -15,-41 -26,-44 -69,-55 -126,-55l-2284 0c-53,0 -98,10 -123,52 -7,11 -17,28 -17,43z"></path>
        <path d="M0 922c0,68 43,115 100,115l2365 0c132,0 132,-215 0,-215l-2365 0c-52,0 -100,48 -100,100z"></path>
      </g>
    </g>
  </symbol>
  <symbol version="1.1" id="quote" xmlns="http://www.w3.org/2000/svg" xmlns:xlink="http://www.w3.org/1999/xlink" x="0px" y="0px" xml:space="preserve" viewBox="0 0 512 512">
    <g>
      <path d="M116.36,217.34c-5.68,0-11.14,0.87-16.58,1.65c1.74-5.91,3.56-11.94,6.48-17.35c2.92-7.85,7.45-14.68,11.96-21.54
		c3.79-7.43,10.44-12.46,15.35-18.82c5.11-6.18,12.11-10.29,17.65-15.4c5.43-5.38,12.56-8.05,18.22-11.84
		c5.93-3.39,11.09-7.13,16.6-8.92c5.31-2.19,9.95-4.09,13.76-5.66c7.7-3.19,12.09-5.04,12.09-5.04l-12.36-49.48
		c0,0-5.58,1.35-15.26,3.69c-4.86,1.22-10.82,2.64-17.57,4.36c-6.93,1.27-14.31,4.79-22.51,7.98c-8.13,3.61-17.52,6.06-26.25,11.89
		c-8.77,5.56-18.92,10.2-27.84,17.65c-8.65,7.7-19.09,14.36-26.8,24.13c-8.43,9.15-16.75,18.74-23.21,29.66
		c-7.48,10.42-12.56,21.84-17.92,33.15c-4.86,11.32-8.75,22.88-11.94,34.1c-6.06,22.51-8.77,43.9-9.82,62.22
		c-0.85,18.32-0.35,33.55,0.72,44.59c0.37,5.18,1.1,10.24,1.62,13.73c0.42,2.79,0.62,4.29,0.62,4.29l0.67-0.15
		c11.09,51.87,57.13,90.83,112.29,90.83c63.44,0,114.86-51.45,114.86-114.86C231.23,268.76,179.8,217.34,116.36,217.34z
		 M397.14,217.34c-5.68,0-11.14,0.87-16.58,1.65c1.74-5.91,3.56-11.94,6.48-17.35c2.92-7.85,7.45-14.68,11.96-21.54
		c3.79-7.43,10.44-12.46,15.35-18.82c5.11-6.18,12.11-10.29,17.65-15.4c5.43-5.38,12.56-8.05,18.22-11.84
		c5.93-3.39,11.09-7.13,16.6-8.92c5.31-2.19,9.95-4.09,13.76-5.66c7.7-3.19,12.09-5.04,12.09-5.04l-12.36-49.48
		c0,0-5.58,1.35-15.26,3.69c-4.86,1.22-10.82,2.64-17.57,4.36c-6.93,1.27-14.31,4.79-22.51,7.98c-8.1,3.64-17.52,6.06-26.25,11.91
		c-8.77,5.56-18.92,10.2-27.84,17.65c-8.65,7.7-19.09,14.36-26.8,24.1c-8.43,9.15-16.75,18.74-23.21,29.66
		c-7.48,10.42-12.56,21.84-17.92,33.15c-4.86,11.32-8.75,22.88-11.94,34.1c-6.06,22.51-8.77,43.9-9.82,62.22
		c-0.85,18.32-0.35,33.55,0.72,44.59c0.37,5.18,1.1,10.24,1.62,13.73c0.42,2.79,0.62,4.29,0.62,4.29l0.67-0.15
		c11.09,51.87,57.13,90.83,112.3,90.83c63.44,0,114.86-51.45,114.86-114.86C512,268.76,460.58,217.34,397.14,217.34z"></path>
    </g>
  </symbol>
  <symbol id="search" version="1.1" xml:space="preserve" xmlns="http://www.w3.org/2000/svg" xmlnsCc="http://creativecommons.org/ns#" xmlnsDc="http://purl.org/dc/elements/1.1/" xmlnsRdf="http://www.w3.org/1999/02/22-rdf-syntax-ns#" xmlnsSvg="http://www.w3.org/2000/svg" viewBox="0 0 281.25 281.25">
    <defs id="defs4"></defs>
    <g id="layer1" transform="translate(6984.8564,-3994.3706)">
      <path d="m -6870.33,4034.1978 c -42.1151,0 -76.3568,34.24 -76.3568,76.355 0,42.115 34.2417,76.3568 76.3568,76.3568 19.9116,0 38.0562,-7.6621 51.6613,-20.1838 l 68.9209,67.7253 a 4.6875,4.6875 0 0 0 6.6266,-0.059 4.6875,4.6875 0 0 0 -0.057,-6.6284 l -68.9978,-67.8003 c 11.3396,-13.3272 18.2025,-30.5754 18.2025,-49.411 0,-42.115 -34.2418,-76.355 -76.3568,-76.355 z m 0,9.375 c 37.0484,0 66.9818,29.9316 66.9818,66.98 0,17.9973 -7.0771,34.3019 -18.5889,46.3256 a 4.6875,4.6875 0 0 0 -0.04,0.028 4.6875,4.6875 0 0 0 -0.031,0.048 c -12.1814,12.6839 -29.3078,20.5811 -48.3215,20.5811 -37.0484,0 -66.9818,-29.9334 -66.9818,-66.9818 0,-37.0484 29.9334,-66.98 66.9818,-66.98 z" id="path5741"></path>
    </g>
  </symbol>
  <symbol id="snap" version="1.1" xml:space="preserve" xmlns="http://www.w3.org/2000/svg" xmlnsCc="http://creativecommons.org/ns#" xmlnsDc="http://purl.org/dc/elements/1.1/" xmlnsRdf="http://www.w3.org/1999/02/22-rdf-syntax-ns#" xmlnsSvg="http://www.w3.org/2000/svg" viewBox="0 0 281.25 281.25">
    <defs id="defs4"></defs>
    <g id="layer1" transform="translate(6693.6064,-3994.3706)">
      <path d="m -6648.1554,4034.2912 a 4.6879687,4.6879687 0 0 0 -4.6875,4.6875 v 192.0336 a 4.6879687,4.6879687 0 0 0 4.6875,4.6875 h 190.3492 a 4.6879687,4.6879687 0 0 0 4.6875,-4.6875 v -192.0336 a 4.6879687,4.6879687 0 0 0 -4.6875,-4.6875 z m 4.6875,9.375 h 180.9742 v 129.6954 l -48.4168,-46.3806 a 4.6879687,4.6879687 0 0 0 -3.327,-1.3019 4.6879687,4.6879687 0 0 0 -3.2794,1.4227 l -28.4125,29.2768 -27.9144,-27.4604 a 4.6879687,4.6879687 0 0 0 -3.1842,-1.344 4.6879687,4.6879687 0 0 0 -3.2373,1.2012 l -63.2026,56.8799 z m 95.4584,23.2965 c -13.386,0 -24.3383,10.9524 -24.3384,24.3383 1e-4,13.386 10.9524,24.3384 24.3384,24.3384 13.3861,0 24.3384,-10.9524 24.3384,-24.3384 0,-13.386 -10.9523,-24.3384 -24.3384,-24.3383 z m 0,9.375 c 8.3195,0 14.9634,6.6439 14.9634,14.9633 0,8.3194 -6.6439,14.9634 -14.9634,14.9634 -8.3194,0 -14.9633,-6.644 -14.9634,-14.9634 1e-4,-8.3193 6.644,-14.9633 14.9634,-14.9633 z m 33.9771,60.6353 51.5387,49.3726 v 39.9792 h -12.3322 l -64.422,-63.3728 z m -63.241,1.7231 28.1543,27.6965 60.9229,59.9322 h -155.2717 v -28.0535 z" id="rect5460"></path>
    </g>
  </symbol>
  <symbol xmlns="http://www.w3.org/2000/svg" viewBox="0 0 48 48" id="video icon">
    <defs></defs>
    <path d="M36.5269,35.3614l-7.3954.529-.05.0037a25.32,25.32,0,0,0-7.0561,1.6375l-4.7593,1.7948a7.5064,7.5064,0,0,1-9.9822-5.4226L4.6743,21.9515a7.5063,7.5063,0,0,1,5.7326-8.9346L31.7316,8.3617a7.5062,7.5062,0,0,1,8.9345,5.7326l2.6588,12.179A7.5063,7.5063,0,0,1,36.5269,35.3614Z"></path>
    <polygon points="19.164 18.952 21.48 29.562 31.073 22.569 19.164 18.952"></polygon>
  </symbol>
  <symbol version="1.1" id="team" xmlns="http://www.w3.org/2000/svg" xmlns:xlink="http://www.w3.org/1999/xlink" xml:space="preserve" viewBox="0 0 512 512">
    <g>
      <path d="M435.95,287.525c32.51,0,58.87-26.343,58.87-58.853c0-32.51-26.361-58.871-58.87-58.871
		c-32.502,0-58.863,26.361-58.863,58.871C377.088,261.182,403.448,287.525,435.95,287.525z"></path>
      <path d="M511.327,344.251c-2.623-15.762-15.652-37.822-25.514-47.677c-1.299-1.306-7.105-1.608-8.673-0.636
		c-11.99,7.374-26.074,11.714-41.19,11.714c-15.099,0-29.184-4.34-41.175-11.714c-1.575-0.972-7.373-0.67-8.672,0.636
		c-2.757,2.757-5.765,6.427-8.698,10.683c7.935,14.94,14.228,30.81,16.499,44.476c2.27,13.7,1.533,26.67-2.138,38.494
		c13.038,4.717,28.673,6.787,44.183,6.787C476.404,397.014,517.804,382.987,511.327,344.251z"></path>
      <path d="M254.487,262.691c52.687,0,95.403-42.716,95.403-95.402c0-52.67-42.716-95.386-95.403-95.386
		c-52.678,0-95.378,42.716-95.378,95.386C159.109,219.975,201.808,262.691,254.487,262.691z"></path>
      <path d="M335.269,277.303c-2.07-2.061-11.471-2.588-14.027-1.006c-19.448,11.966-42.271,18.971-66.755,18.971
		c-24.466,0-47.3-7.005-66.738-18.971c-2.555-1.583-11.956-1.055-14.026,1.006c-16.021,16.004-37.136,51.782-41.384,77.288
		c-10.474,62.826,56.634,85.508,122.148,85.508c65.532,0,132.639-22.682,122.165-85.508
		C372.404,329.085,351.289,293.307,335.269,277.303z"></path>
      <path d="M76.049,287.525c32.502,0,58.862-26.343,58.862-58.853c0-32.51-26.36-58.871-58.862-58.871
		c-32.511,0-58.871,26.361-58.871,58.871C17.178,261.182,43.538,287.525,76.049,287.525z"></path>
      <path d="M115.094,351.733c2.414-14.353,9.225-31.253,17.764-46.88c-2.38-3.251-4.759-6.083-6.955-8.279
		c-1.299-1.306-7.097-1.608-8.672-0.636c-11.991,7.374-26.076,11.714-41.182,11.714c-15.108,0-29.202-4.34-41.183-11.714
		c-1.568-0.972-7.382-0.67-8.681,0.636c-9.887,9.854-22.882,31.915-25.514,47.677c-6.468,38.736,34.924,52.762,75.378,52.762
		c14.437,0,29.016-1.777,41.459-5.84C113.587,379.108,112.757,365.835,115.094,351.733z"></path>
    </g>
  </symbol>
  <symbol id="alphabet" xmlns="http://www.w3.org/2000/svg" viewBox="0 0 48 48">
    <defs></defs>
    <circle id="b" cx="24" cy="24" r="21.5"></circle>
    <g>
      <circle cx="12.7059" cy="24" r="4.5"></circle>
      <circle cx="24" cy="24" r="4.5"></circle>
      <path d="m39.3254,26.002c-.7367,1.4806-2.2652,2.498-4.0313,2.498-2.4853,0-4.5-2.0147-4.5-4.5s2.0147-4.5,4.5-4.5c1.7664,0,3.2951,1.0178,4.0317,2.4989"></path>
    </g>
    <line x1="17.2059" y1="24" x2="17.2059" y2="28.5"></line>
    <line x1="19.5" y1="24" x2="19.5" y2="15"></line>
  </symbol>
  <symbol id="basic ui" version="1.1" xml:space="preserve" xmlns="http://www.w3.org/2000/svg" xmlnsCc="http://creativecommons.org/ns#" xmlnsDc="http://purl.org/dc/elements/1.1/" xmlnsRdf="http://www.w3.org/1999/02/22-rdf-syntax-ns#" xmlnsSvg="http://www.w3.org/2000/svg" viewBox="0 0 281.25 281.25">
    <defs id="defs4"></defs>
    <g id="layer1" transform="translate(6111.1064,-3994.3706)">
      <path d="m -6064.3529,4034.1868 a 4.6879687,4.6879687 0 0 0 -4.6875,4.6875 v 192.2424 a 4.6879687,4.6879687 0 0 0 4.6875,4.6875 h 187.7436 a 4.6879687,4.6879687 0 0 0 4.6875,-4.6875 v -140.625 -51.6174 a 4.6879687,4.6879687 0 0 0 -4.6875,-4.6875 z m 4.6875,9.375 h 178.3686 v 42.2424 h -178.3686 z m 15.5933,14.9835 a 4.6875,4.6875 0 0 0 -4.6875,4.6875 4.6875,4.6875 0 0 0 4.6875,4.6875 h 7.1027 a 4.6875,4.6875 0 0 0 4.6875,-4.6875 4.6875,4.6875 0 0 0 -4.6875,-4.6875 z m 26.5173,0 a 4.6875,4.6875 0 0 0 -4.6875,4.6875 4.6875,4.6875 0 0 0 4.6875,4.6875 h 7.1009 a 4.6875,4.6875 0 0 0 4.6875,-4.6875 4.6875,4.6875 0 0 0 -4.6875,-4.6875 z m 112.696,0 a 4.6875,4.6875 0 0 0 -4.6875,4.6875 4.6875,4.6875 0 0 0 4.6875,4.6875 h 7.1008 a 4.6875,4.6875 0 0 0 4.6875,-4.6875 4.6875,4.6875 0 0 0 -4.6875,-4.6875 z m -154.8066,36.6339 h 178.3686 v 131.25 h -178.3686 z" id="rect4895"></path>
    </g>
  </symbol>

 
  <symbol version="1.1" id="fee" xmlns="http://www.w3.org/2000/svg" xmlns:xlink="http://www.w3.org/1999/xlink" x="0px" y="0px" xml:space="preserve" viewBox="0 0 88.47 122.88">
    <g>
      <path d="M11.86,68.08L7.62,92.09c-0.07,0.33-0.2,0.63-0.4,0.86c-1.51,1.95-2.46,3.62-2.74,4.97c-0.2,1,0,1.8,0.67,2.43l16.56,16.56 c1.05,1.01,2.28,1.65,3.74,1.91c1.6,0.3,3.46,0.13,5.6-0.45c0.03,0,0.08-0.02,0.12-0.02c0.81-0.22,1.88-0.48,2.89-0.73 c4.44-1.08,8.31-2.03,11.91-5.29l4.62-4.82c0.05-0.08,0.12-0.15,0.18-0.22c0.07-0.07,0.52-0.52,1.13-1.1 c3.16-3.09,7.07-6.9,4.69-10.24l-1.85-1.85c-0.9,0.86-1.85,1.71-2.76,2.53c-0.83,0.73-1.61,1.41-2.33,2.13 c-0.76,0.76-2,0.76-2.76,0c-0.76-0.77-0.76-2,0-2.76c0.71-0.72,1.6-1.5,2.51-2.31c3.13-2.76,6.72-5.92,4.79-8.68l-1.83-1.83 c-0.1-0.1-0.18-0.22-0.27-0.33c-1.05,1.08-2.21,2.11-3.34,3.11c-0.83,0.73-1.61,1.41-2.33,2.13c-0.77,0.77-2,0.77-2.76,0 c-0.77-0.76-0.77-2,0-2.76c0.71-0.71,1.6-1.5,2.51-2.31c3.13-2.76,6.72-5.92,4.79-8.68l-1.83-1.83c-0.13-0.13-0.23-0.27-0.32-0.42 l-5.37,5.37c-0.77,0.76-2,0.76-2.76,0c-0.76-0.77-0.76-2,0-2.76l10.07-10.07c2.41-2.41,2.96-4.92,2.33-6.82 c-0.23-0.7-0.62-1.31-1.1-1.8c-0.25-0.25-0.53-0.47-0.84-0.66l-0.01,0c-0.15,0.07-0.26-0.08-0.4-0.22 c-0.17-0.08-0.36-0.16-0.54-0.22c-1.67-0.55-3.84-0.16-6.04,1.69c-0.03,0.03-0.06,0.06-0.09,0.08c-0.24,0.2-0.48,0.42-0.72,0.66 L22.44,78.27c-0.76,0.76-2,0.76-2.76,0c-0.7-0.7-0.76-1.78-0.18-2.55L11.86,68.08L11.86,68.08z M25.08,70.11l0.67-0.67l13.79-13.79 c-1.43-0.66-2.76-1.59-3.94-2.77c-5.25-5.25-5.25-13.73,0-18.98c5.25-5.25,13.73-5.25,18.98,0c5.25,5.25,5.25,13.73,0,18.98 c-0.04,0.04-0.09,0.09-0.13,0.13c0.1,0.09,0.21,0.19,0.31,0.29c0.43,0.43,0.8,0.9,1.13,1.4l17.1-17.1c-2.62-2.62-2.62-6.9,0-9.53 L60.25,15.33c-2.62,2.62-6.9,2.62-9.53,0L15.28,50.77c2.62,2.62,2.62,6.9,0,9.53L25.08,70.11L25.08,70.11z M55.14,65.57 c-0.46,0.64-0.99,1.28-1.62,1.9l-2,2l-0.02-0.05c0.15,0.08,0.28,0.18,0.42,0.32l1.91,1.91c0.1,0.1,0.2,0.23,0.28,0.35 c2.15,2.94,1.81,5.57,0.35,7.97c0.27,0.1,0.52,0.25,0.71,0.45l1.91,1.91c0.1,0.1,0.2,0.23,0.28,0.35c2.31,3.18,1.73,5.95,0,8.48 c0.08,0.05,0.15,0.12,0.23,0.2l1.91,1.91c0.1,0.1,0.2,0.23,0.28,0.35c4.44,6.07-0.85,11.22-5.1,15.38l-1.1,1.1l-4.74,4.97 l-0.15,0.15c-4.34,3.94-8.65,4.99-13.62,6.2c-0.83,0.2-1.68,0.42-2.84,0.71c-0.03,0-0.05,0.02-0.08,0.02 c-2.69,0.73-5.14,0.91-7.33,0.52c-2.23-0.4-4.16-1.4-5.77-2.98L2.52,103.15c-1.68-1.61-2.24-3.61-1.78-5.97 c0.37-1.9,1.46-3.99,3.19-6.25l4.42-25.04v-0.1c0.04-0.31,0.1-0.66,0.17-1.04L0,56.23L56.23,0l32.24,32.24L55.14,65.57L55.14,65.57 z"></path>
    </g>
  </symbol>
  <symbol version="1.1" id="result" xmlns="http://www.w3.org/2000/svg" xmlns:xlink="http://www.w3.org/1999/xlink" x="0px" y="0px" xml:space="preserve" viewBox="0 0 122.88 105.98">
    <g>
      <path d="M122.88,105.98H9.59v-0.02c-2.65,0-5.05-1.08-6.78-2.81c-1.72-1.72-2.79-4.11-2.79-6.75H0V0h12.26v93.73h110.62V105.98 L122.88,105.98z M83.37,45.6h19.55c1.04,0,1.89,0.85,1.89,1.89v38.46c0,1.04-0.85,1.89-1.89,1.89H83.37 c-1.04,0-1.89-0.85-1.89-1.89V47.5C81.48,46.46,82.33,45.6,83.37,45.6L83.37,45.6z M25.36,22.07h19.55c1.04,0,1.89,0.85,1.89,1.89 v62c0,1.04-0.85,1.89-1.89,1.89H25.36c-1.04,0-1.89-0.85-1.89-1.89v-62C23.47,22.92,24.32,22.07,25.36,22.07L25.36,22.07 L25.36,22.07z M54.37,8.83h19.54c1.04,0,1.89,0.85,1.89,1.89v75.24c0,1.04-0.85,1.89-1.89,1.89H54.37c-1.04,0-1.89-0.85-1.89-1.89 V10.72C52.48,9.68,53.33,8.83,54.37,8.83L54.37,8.83z"></path>
    </g>
  </symbol>
  <symbol version="1.1" id="score" xmlns="http://www.w3.org/2000/svg" xmlns:xlink="http://www.w3.org/1999/xlink" x="0px" y="0px" xml:space="preserve" viewBox="0 0 96.17 122.88">
    <g>
      <path d="M62.74,110.31l21.48-22.58H62.74V110.31L62.74,110.31z M18.93,61.94h58.3v5.53h-58.3V61.94L18.93,61.94z M18.93,75.53 h27.29v5.53H18.93V75.53L18.93,75.53z M18.93,89.12h19.23v5.53H18.93V89.12L18.93,89.12z M52.38,43.48h-8.04l-1.4,5.69H32.45 l9.67-29.83h12.65l9.72,29.83H53.74L52.38,43.48L52.38,43.48z M50.84,36.93l-2.39-9.94h-0.14l-1.17,5.06l-1.22,4.88H50.84 L50.84,36.93z M96.17,84.85c0,1.63-1.1,3.04-2.6,3.45l-31.64,33.27c-0.66,0.82-1.66,1.32-2.76,1.32H6.43 c-1.79,0-3.39-0.72-4.55-1.88C0.72,119.84,0,118.24,0,116.45V6.43c0-1.79,0.72-3.39,1.88-4.55C3.04,0.72,4.67,0,6.43,0h83.31 c1.76,0,3.39,0.72,4.55,1.88c1.16,1.16,1.88,2.76,1.88,4.55V84.85L96.17,84.85z M88.99,80.55V7.18H7.18v108.55h48.38V84.16 c0-1.98,1.6-3.61,3.61-3.61H88.99L88.99,80.55z"></path>
    </g>
  </symbol>
  <symbol id="subject" xmlns="http://www.w3.org/2000/svg" viewBox="0 0 119.35 122.88">
    <defs></defs>
    <title>notebook</title>
    <path d="M30.52.05h85.59V103.1c-.15,2.52-3.41,2.58-6.94,2.42H29.32c-8,.73-5.15,11.38,0,10.82h83.1v-3.67h6.93v6.22a4,4,0,0,1-4,4H29.67c-12,.17-15.95-.47-15.95-9.25V100.92H4.56C2,100.92,0,98.59,0,95.73s2-5.19,4.56-5.19h9.16V82.26H4.56C2,82.26,0,79.94,0,77.07s2-5.18,4.56-5.18h9.16V63.6H4.56C2,63.6,0,61.28,0,58.42s2-5.19,4.56-5.19h9.16V45H4.56C2,45,0,42.63,0,39.76s2-5.19,4.56-5.19h9.16V26.29H4.56C2,26.29,0,24,0,21.11s2-5.19,4.56-5.19h9.16C13.7,2.65,13.53-.47,30.52.05ZM46.59,41.91a2.3,2.3,0,0,1,0-4.6H80.4a2.3,2.3,0,1,1,0,4.6Zm0-12.12a2.31,2.31,0,0,1,0-4.61H86.47a2.31,2.31,0,1,1,0,4.61ZM40.69,15H92.38a3.35,3.35,0,0,1,3.33,3.33V48.81a3.37,3.37,0,0,1-3.33,3.34H40.69a3.35,3.35,0,0,1-3.33-3.34V18.28A3.34,3.34,0,0,1,40.69,15Z"></path>
  </symbol>
  <symbol version="1.1" id="class" xmlns="http://www.w3.org/2000/svg" xmlns:xlink="http://www.w3.org/1999/xlink" x="0px" y="0px" xml:space="preserve" viewBox="0 0 122.88 84.25">
    <g>
      <path d="M37.54,0h82.81c1.35,0,2.46,1.11,2.46,2.46v14.43h0.07v51.9v2.88v0.62H39.51v-3.5h79.87V17.5H32.61V4.93 C32.61,2.22,34.83,0,37.54,0L37.54,0z M0.01,41.38c-0.31-5.8,4.45-7.28,10.9-6.9l8.14,9.07l7.97-8.95l19.74-0.11 c7.46,0.85,5.89,8.65,0,8.98H33.84L30.8,61.73l-2.3,18.54c-0.6,1.96-1.8,3.24-3.53,3.9l-11.23,0.08c-2.26-0.34-3.61-1.66-4.01-3.98 L7.98,63.76c-4.6,0.44-6.14-2.82-6.62-7.54L0.01,41.38L0.01,41.38z M18.56,9.77c5.53,0,10.01,4.48,10.01,10.01 c0,5.53-4.48,10.01-10.01,10.01c-5.53,0-10.01-4.48-10.01-10.01C8.54,14.26,13.03,9.77,18.56,9.77L18.56,9.77z M18.94,39.29 l-6.34-6.95l1.87-1.49c2.75,1.15,5.48,1.15,8.18,0l2.56,1.52L18.94,39.29L18.94,39.29z M66.04,4.48c2.01,0,3.64,1.63,3.64,3.64 c0,2.01-1.63,3.64-3.64,3.64c-2.01,0-3.64-1.63-3.64-3.64C62.4,6.11,64.03,4.48,66.04,4.48L66.04,4.48z M45.33,4.48 c2.01,0,3.64,1.63,3.64,3.64c0,2.01-1.63,3.64-3.64,3.64c-2.01,0-3.64-1.63-3.64-3.64C41.69,6.11,43.32,4.48,45.33,4.48L45.33,4.48 z M55.68,4.48c2.01,0,3.64,1.63,3.64,3.64c0,2.01-1.63,3.64-3.64,3.64c-2.01,0-3.64-1.63-3.64-3.64 C52.04,6.11,53.67,4.48,55.68,4.48L55.68,4.48z M109.11,6.13c-0.37-0.37-0.37-0.98,0-1.35c0.37-0.37,0.98-0.37,1.35,0l2,2l2-2 c0.37-0.37,0.98-0.37,1.35,0c0.37,0.37,0.37,0.98,0,1.35l-2,2l2,2c0.37,0.37,0.37,0.98,0,1.35c-0.37,0.37-0.98,0.37-1.35,0l-2-2 l-2,2c-0.37,0.37-0.98,0.37-1.35,0c-0.37-0.37-0.37-0.98,0-1.35l2-2L109.11,6.13L109.11,6.13z"></path>
    </g>
  </symbol>

  <symbol xmlns="http://www.w3.org/2000/svg" id="student" viewBox="0 0 32 32">
    <path d="M16 12a5 5 0 1 1 5-5 5 5 0 0 1-5 5Zm0 10.68a10 10 0 0 1 6.73-5.4h.05a7 7 0 0 0-13.56 0 10 10 0 0 1 6.78 5.4ZM26.57 22a17.67 17.67 0 0 0-2.45.17c-4.27.58-7.54 2.63-8 5.16A3.42 3.42 0 0 0 16 28a3.42 3.42 0 0 0-.07-.71c-.51-2.53-3.78-4.58-8-5.16a17.67 17.67 0 0 0-2.5-.13H2v8h28v-8Zm-9.49.77a9 9 0 0 0-.78 2c1.51-1.78 4.26-3.1 7.68-3.56a18.79 18.79 0 0 1 2.59-.21H28v-3h-2.94a9.08 9.08 0 0 0-2.1.25 9.19 9.19 0 0 0-5.88 4.52ZM8 21.18c3.42.46 6.17 1.78 7.69 3.56a9.18 9.18 0 0 0-4.94-5.89 8.77 8.77 0 0 0-1.75-.6A9.08 9.08 0 0 0 6.94 18H4v3h1.43a18.54 18.54 0 0 1 2.57.18Z"></path>
  </symbol>


  <symbol xmlns="http://www.w3.org/2000/svg" id="subscription" viewBox="0 0 64 64">
    <circle cx="12" cy="11" r="1"></circle>
    <circle cx="17" cy="11" r="1"></circle>
    <circle cx="22" cy="11" r="1"></circle>
    <path d="M53 16H7a1 1 0 0 1 0-2H53a1 1 0 0 1 0 2zM37 44a1 1 0 0 1-1-1V39a1 1 0 0 1 2 0v4A1 1 0 0 1 37 44zM55.11 53h0a1 1 0 0 1 .12 1.28 14.52 14.52 0 0 1-3.68 3.52A.94.94 0 0 1 51 58a1 1 0 0 1-.55-1.83 12.76 12.76 0 0 0 3.15-3A1 1 0 0 1 55.11 53z"></path>
    <path d="M58 40.64v5.15a14.34 14.34 0 0 1-.73 4.54 1 1 0 0 1-1.65.37h0a1 1 0 0 1-.23-1A12.85 12.85 0 0 0 56 45.79V40.64A1.59 1.59 0 0 0 54.66 39a1.48 1.48 0 0 0-1.17.38A1.51 1.51 0 0 0 53 40.5a1 1 0 0 1-2 0V38.64A1.59 1.59 0 0 0 49.66 37a1.48 1.48 0 0 0-1.17.38A1.51 1.51 0 0 0 48 38.5a1 1 0 0 1-2 0v-.86A1.59 1.59 0 0 0 44.66 36a1.48 1.48 0 0 0-1.17.38A1.51 1.51 0 0 0 43 37.5a1 1 0 0 1-2 0v-9A1.5 1.5 0 0 0 39.34 27 1.59 1.59 0 0 0 38 28.64V39a1 1 0 0 1-2 0 3 3 0 0 0-3.1-3 1 1 0 0 0-.9 1v8.79a12.47 12.47 0 0 0 5.55 10.38 1 1 0 0 1-1.1 1.66 14.43 14.43 0 0 1-6.45-12V37a3 3 0 0 1 2.84-3A5 5 0 0 1 36 35V28.64A3.61 3.61 0 0 1 39.14 25 3.49 3.49 0 0 1 43 28.5v5.84A3.59 3.59 0 0 1 44.86 34a3.5 3.5 0 0 1 2.58 1.65 3.47 3.47 0 0 1 5.36 1.77A3.57 3.57 0 0 1 54.86 37 3.61 3.61 0 0 1 58 40.64zM7 28H7a1 1 0 0 1-1-1V10a4 4 0 0 1 4-4H29a1 1 0 0 1 0 2H10a2 2 0 0 0-2 2V27A1 1 0 0 1 7 28z"></path>
    <path d="M32,43a1,1,0,0,1-1,1H10a4,4,0,0,1-4-4V31a1,1,0,0,1,1-1H7a1,1,0,0,1,1,1v9a2,2,0,0,0,2,2H31A1,1,0,0,1,32,43Z"></path>
    <rect width="2" height="2" x="32" y="6" rx="1" ry="1"></rect>
    <path d="M54,10V38.5a1,1,0,0,1-2,0V10a2,2,0,0,0-2-2H37a1,1,0,0,1-1-1h0a1,1,0,0,1,1-1H50A4,4,0,0,1,54,10Z"></path>
    <path d="M45.31 29H42a1 1 0 0 1 0-2h3.36a1.83 1.83 0 0 0 1.22-.46 1.42 1.42 0 0 0 .47-1A1.6 1.6 0 0 0 45.31 24H36.69a1.83 1.83 0 0 0-1.22.46 1.42 1.42 0 0 0-.47 1A1.6 1.6 0 0 0 36.69 27h.39a1 1 0 0 1 0 2h-.39A3.61 3.61 0 0 1 33 25.5 3.46 3.46 0 0 1 34.11 23a3.81 3.81 0 0 1 2.58-1h8.62A3.61 3.61 0 0 1 49 25.5 3.46 3.46 0 0 1 47.89 28 3.81 3.81 0 0 1 45.31 29zM29 31H12a1 1 0 0 1-1-1V20a1 1 0 0 1 1-1H29a1 1 0 0 1 1 1V30A1 1 0 0 1 29 31zM13 29H28V21H13zM28 35H13a1 1 0 0 1 0-2H28a1 1 0 0 1 0 2zM22 39H13a1 1 0 0 1 0-2h9a1 1 0 0 1 0 2z"></path>
  </symbol>

  <symbol version="1.1" id="teacher" xmlns="http://www.w3.org/2000/svg" xmlns:xlink="http://www.w3.org/1999/xlink" x="0px" y="0px" xml:space="preserve" viewBox="0 0 122.88 102.56">
    <g>
      <path d="M68.69,55.03c-0.79,0.27-1.6,0.49-2.44,0.68l0,0c-0.86,0.24-1.65,0.38-2.35,0.4c-0.8,0.02-1.49-0.14-2.04-0.5 c-0.17-0.11-0.32-0.23-0.45-0.36c-0.13,0.13-0.28,0.25-0.45,0.36c-0.55,0.37-1.24,0.51-2.04,0.5c-0.7-0.02-1.49-0.16-2.35-0.4l0,0 c-0.84-0.18-1.65-0.41-2.44-0.68c-0.79-0.27-1.55-0.58-2.3-0.92c-0.36-0.17-0.51-0.57-0.33-0.91c0.11-0.2,0.31-0.33,0.53-0.36l0,0 c0.4-0.06,0.72-0.11,1.02-0.15l0.03,0c0.97-0.13,1.71-0.24,2.61-0.6c0.26-0.1,0.5-0.21,0.76-0.33c1.44-0.67,3.02-1.4,4.6-0.15 c0.14,0.11,0.26,0.22,0.37,0.34c0.11-0.12,0.24-0.23,0.37-0.34c1.57-1.25,3.16-0.52,4.6,0.15c0.25,0.12,0.5,0.23,0.75,0.33 c0.9,0.36,1.65,0.47,2.61,0.6l0.03,0c0.3,0.04,0.62,0.08,1.02,0.15l0,0c0.22,0.04,0.42,0.16,0.53,0.36 c0.18,0.33,0.04,0.74-0.33,0.91C70.24,54.46,69.48,54.76,68.69,55.03L68.69,55.03L68.69,55.03z M85.9,46.5v-8.57 c0.39-1.66,0.95-1.82,1.77-1.97C89.88,35.61,89.62,45.93,85.9,46.5L85.9,46.5L85.9,46.5z M44.17,70.57 c5.65,16.6,29.19,17.15,34.46,0c7.97,7.18,22.96,4.9,34.25,11.45c7.5,4.34,16.23,19.59,3.59,20.54H6.33 c-10.59-0.8-5.74-12.15-0.98-16.96C17.61,73.21,41.25,81.4,44.17,70.57L44.17,70.57L44.17,70.57z M31.85,19.92v-3.78 c0.79-6.56,3.84-9.19,8.86-8.43c4.77-4.98,11.5-7.77,20.77-7.7C71.79-0.2,80.6,2.22,86.99,8.77c3.36,3.35,4.8,6.84,3.93,14.2 c0.18,7.23,0.97,7.82-1.37,9.1c-0.01,0.2-0.02,0.39-0.03,0.6l-1.62,1.02c1.3-0.09,2.22,0.72,2.77,2.09 c0.27,0.69,0.45,1.53,0.52,2.46c0.06,0.86,0.05,1.81-0.06,2.78c-0.38,3.51-2,7.17-4.98,7.6c-0.13,0.02-0.26,0.02-0.38,0.01v0.45 c0,0.02,0,0.04,0,0.06c0.2,4.9-2.39,10.34-6.57,14.7c-7.6,7.93-20.09,11.88-30.93,2.9c-1.88-1.57-4.08-3.11-5.8-5.53 c0.02-0.02,0.04-0.04,0.05-0.05l-0.04-0.03c-2.8-2.6-4.11-3.83-5.23-9.17c-0.02-0.1-0.03-0.22-0.03-0.32l0,0v-3 c-0.16,0.03-0.32,0.03-0.49,0c-2.99-0.44-4.6-4.1-4.98-7.6c-0.1-0.96-0.12-1.92-0.06-2.78c0.07-0.92,0.25-1.77,0.52-2.45 c0.59-1.5,1.63-2.33,3.11-2.05c0.71,0.13,1.37,0.5,1.91,1.12v-1.22l-1.21-0.68c-0.15-0.98-0.17-1.99-0.1-3 C33.7,26.3,32,22.75,31.85,19.92L31.85,19.92L31.85,19.92z M83.05,32.14c-1.43-4-3.84-4.46-7.28-6.56 c-2.89-1.25-5.42-2.31-7.82-3.07c-5.82-1.3-12.22-0.92-17.52,0.85c-1.41,0.55-2.9,1.22-4.51,2.02c-3.38,1.98-5.47,2.17-6.18,5.54 v1.58c7.22-1.04,14.29-1.85,21.69-1.84c5.12,0.01,10.25,0.37,15.37,1.05c2.08,0.01,4.15,0.35,6.23,0.69v-0.27H83.05L83.05,32.14z M39.74,34.63v16.99c1.2,5.77,1.65,4.69,5.34,8.31l6.41,6.28c1.16,0.95,2.47,1.51,3.85,1.84c4.74,1.12,14.72,0.67,18.46-3.26 c5.57-5.42,9.61-7.06,9.22-15.72V34.56l-2.75-0.41c0.24,0.38,0.45,0.78,0.61,1.19c0.18,0.43,0.31,0.89,0.4,1.35 c0.07,0.37,0.12,0.73,0.14,1.1c0.02,0.37,0.01,0.74-0.02,1.11c-0.03,0.37-0.09,0.74-0.18,1.1c-0.08,0.35-0.19,0.71-0.33,1.06 c-0.14,0.35-0.3,0.7-0.5,1.04c-0.19,0.33-0.41,0.65-0.64,0.95c-0.24,0.3-0.5,0.58-0.78,0.84l-0.02,0.02 c-0.27,0.25-0.57,0.48-0.88,0.7c-0.37,0.25-0.77,0.48-1.2,0.67l-0.01,0.01c-0.41,0.18-0.84,0.33-1.3,0.45 c-0.44,0.11-0.91,0.19-1.4,0.24C73.69,46,73.2,46,72.69,45.97c-0.36-0.02-0.74-0.06-1.11-0.12l-0.01,0 c-0.37-0.06-0.74-0.14-1.09-0.23c-0.36-0.09-0.73-0.21-1.1-0.34c-0.35-0.12-0.71-0.27-1.06-0.44c-0.44-0.2-0.86-0.43-1.27-0.68 l-0.02-0.01c-0.39-0.24-0.78-0.51-1.14-0.8c-0.36-0.29-0.71-0.6-1.02-0.92c-0.31-0.32-0.61-0.67-0.87-1.02 c-0.28-0.38-0.53-0.78-0.75-1.21c-0.21-0.41-0.38-0.84-0.52-1.28c-0.13-0.42-0.23-0.85-0.28-1.29c-0.04-0.35-0.06-0.7-0.06-1.06 l-0.36-0.14c-0.09-0.03-0.19-0.05-0.28-0.06c-0.09-0.01-0.19-0.02-0.27-0.02c-0.1,0-0.2,0.01-0.29,0.02 c-0.1,0.02-0.2,0.04-0.29,0.08c-0.1,0.03-0.2,0.08-0.31,0.13l-0.14,0.08c0,0.37-0.02,0.73-0.07,1.08 c-0.06,0.44-0.15,0.86-0.28,1.27c-0.14,0.43-0.31,0.85-0.52,1.26l-0.01,0.02c-0.21,0.41-0.46,0.8-0.73,1.18 c-0.26,0.36-0.56,0.7-0.87,1.02c-0.32,0.33-0.66,0.64-1.02,0.92c-0.36,0.29-0.75,0.56-1.16,0.81c-0.4,0.25-0.83,0.48-1.27,0.68 c-0.36,0.16-0.71,0.31-1.07,0.44l-0.03,0.01c-0.35,0.12-0.7,0.23-1.06,0.32c-0.36,0.09-0.74,0.17-1.12,0.23 c-0.37,0.06-0.74,0.1-1.1,0.12c-0.51,0.03-1,0.02-1.48-0.02c-0.5-0.04-0.97-0.13-1.41-0.24c-0.46-0.12-0.9-0.27-1.31-0.45 l-0.02-0.01c-0.42-0.19-0.81-0.41-1.17-0.65l-0.02-0.01c-0.31-0.21-0.61-0.45-0.88-0.7c-0.28-0.26-0.55-0.54-0.78-0.84l-0.01-0.01 c-0.24-0.29-0.45-0.61-0.64-0.94c-0.19-0.34-0.36-0.68-0.5-1.04c-0.14-0.35-0.25-0.71-0.34-1.07c-0.08-0.35-0.14-0.72-0.18-1.1 c-0.03-0.37-0.04-0.74-0.02-1.1c0.02-0.37,0.07-0.74,0.14-1.1l0.01-0.04c0.09-0.45,0.23-0.89,0.4-1.31c0.16-0.4,0.36-0.79,0.6-1.16 L39.74,34.63L39.74,34.63z M47.86,37.94c-0.36,0.15-0.76-0.08-0.89-0.49c-0.13-0.41,0.07-0.87,0.43-1c2.8-1.09,4.8-1.02,7.6,0 c0.36,0.13,0.57,0.58,0.46,0.99c-0.11,0.41-0.51,0.64-0.87,0.52c-0.47-0.17-0.93-0.31-1.4-0.41c0.05,0.17,0.07,0.34,0.07,0.53 c0,1.08-0.87,1.96-1.96,1.96c-1.08,0-1.96-0.88-1.96-1.96c0-0.27,0.05-0.52,0.15-0.75C48.67,37.41,48.69,37.62,47.86,37.94 L47.86,37.94L47.86,37.94L47.86,37.94z M69.69,37.36c-0.08,0.22-0.12,0.45-0.12,0.69c0,1.08,0.88,1.96,1.96,1.96 c1.08,0,1.96-0.88,1.96-1.96c0-0.31-0.07-0.6-0.2-0.86c0.85,0.09,1.72,0.28,2.58,0.56c0.37,0.12,0.76-0.12,0.86-0.55 c0.1-0.42-0.11-0.86-0.47-0.98c-1.41-0.47-2.82-0.69-4.23-0.68c-1.4,0-2.8,0.24-4.17,0.69c-0.37,0.12-0.58,0.56-0.48,0.97 c0.1,0.41,0.5,0.66,0.86,0.54C68.71,37.59,69.2,37.45,69.69,37.36L69.69,37.36L69.69,37.36L69.69,37.36z M58.99,48.07 c-0.38-0.32-0.44-0.89-0.11-1.27c0.32-0.38,0.89-0.43,1.27-0.11c0.46,0.38,0.89,0.58,1.31,0.58c0.41,0.01,0.87-0.19,1.36-0.59 c0.38-0.32,0.95-0.26,1.27,0.12c0.32,0.38,0.26,0.95-0.12,1.27c-0.83,0.68-1.68,1.02-2.53,0.99 C60.57,49.06,59.76,48.72,58.99,48.07L58.99,48.07L58.99,48.07L58.99,48.07z M56.15,59.81c-0.47-0.25-0.64-0.83-0.39-1.28 c0.25-0.47,0.83-0.64,1.28-0.39c1.47,0.78,2.91,1.17,4.33,1.18c1.42,0,2.84-0.38,4.27-1.17c0.47-0.25,1.04-0.08,1.29,0.37 c0.25,0.46,0.08,1.04-0.37,1.29c-1.71,0.94-3.43,1.41-5.18,1.4C59.62,61.2,57.88,60.73,56.15,59.81L56.15,59.81L56.15,59.81 L56.15,59.81z M36.92,46.5v-8.57c-0.39-1.66-0.86-1.73-1.68-1.89C33.03,35.7,33.08,45.67,36.92,46.5L36.92,46.5L36.92,46.5z M77.17,33.58c-2.01-0.18-4.02-0.28-6.03-0.29c-2.05-0.01-4.11,0.08-6.17,0.3c-0.09,0.18-0.17,0.35-0.24,0.53 c-0.1,0.24-0.18,0.48-0.25,0.7c-0.07,0.25-0.13,0.5-0.18,0.73c-0.04,0.24-0.07,0.47-0.09,0.71c-0.02,0.37-0.02,0.73,0.02,1.08 l0,0.01c0.04,0.35,0.12,0.71,0.22,1.05l0.01,0.03c0.11,0.34,0.24,0.67,0.41,1c0.18,0.34,0.38,0.67,0.61,0.98 c0.22,0.3,0.46,0.58,0.72,0.85c0.27,0.27,0.55,0.53,0.85,0.77c0.31,0.24,0.64,0.48,0.99,0.69c0.34,0.21,0.7,0.4,1.07,0.57 l0.02,0.01c0.29,0.14,0.59,0.26,0.89,0.36c0.3,0.11,0.62,0.21,0.93,0.29c0.31,0.08,0.62,0.15,0.93,0.19 c0.3,0.05,0.62,0.08,0.93,0.1c0.41,0.02,0.81,0.02,1.19-0.02c0.39-0.03,0.75-0.1,1.1-0.18l0.01,0c0.35-0.09,0.69-0.21,1.01-0.35 c0.33-0.15,0.63-0.32,0.91-0.5c0.25-0.17,0.48-0.35,0.69-0.55l0.02-0.02c0.21-0.19,0.4-0.4,0.58-0.62l0.03-0.03 c0.18-0.22,0.34-0.46,0.48-0.71c0.15-0.25,0.27-0.52,0.39-0.81c0.11-0.27,0.2-0.55,0.26-0.84c0.07-0.28,0.11-0.58,0.14-0.87l0-0.04 c0.02-0.28,0.03-0.56,0.01-0.85c-0.01-0.29-0.05-0.58-0.11-0.85c-0.07-0.35-0.17-0.69-0.3-1.01c-0.13-0.32-0.29-0.64-0.48-0.93 c-0.18-0.29-0.39-0.56-0.62-0.81c-0.16-0.17-0.33-0.33-0.51-0.49C77.44,33.73,77.3,33.66,77.17,33.58L77.17,33.58z M46.06,33.6 c-0.12,0.08-0.27,0.14-0.42,0.16l-0.45,0.07c-0.17,0.15-0.33,0.3-0.48,0.46c-0.24,0.26-0.45,0.53-0.63,0.82 c-0.19,0.3-0.35,0.61-0.48,0.93c-0.13,0.33-0.23,0.67-0.3,1.01c-0.06,0.29-0.09,0.58-0.11,0.87c-0.02,0.29-0.01,0.58,0.02,0.88 l0,0.03c0.03,0.27,0.07,0.56,0.14,0.84c0.07,0.29,0.15,0.57,0.26,0.84c0.11,0.27,0.24,0.55,0.39,0.81l0.02,0.03 c0.14,0.25,0.3,0.48,0.48,0.7c0.18,0.23,0.38,0.44,0.6,0.64l0.01,0.01c0.21,0.2,0.44,0.38,0.68,0.54c0.28,0.19,0.58,0.36,0.91,0.5 l0.02,0.01c0.31,0.14,0.65,0.25,1,0.34c0.34,0.09,0.71,0.15,1.1,0.18c0.38,0.03,0.78,0.04,1.19,0.02c0.31-0.02,0.63-0.05,0.93-0.1 s0.61-0.11,0.92-0.19c0.31-0.08,0.63-0.18,0.92-0.28c0.3-0.11,0.61-0.23,0.91-0.37c0.36-0.17,0.73-0.36,1.08-0.58l0.02-0.01 c0.34-0.21,0.66-0.44,0.97-0.67c0.3-0.24,0.58-0.49,0.85-0.77c0.26-0.27,0.5-0.55,0.72-0.84c0.23-0.31,0.43-0.64,0.61-0.98 c0.17-0.34,0.31-0.68,0.42-1.03c0.1-0.35,0.18-0.7,0.22-1.06c0.04-0.35,0.05-0.71,0.02-1.08c-0.02-0.24-0.05-0.48-0.09-0.72l0-0.02 c-0.04-0.23-0.1-0.47-0.17-0.71c-0.07-0.24-0.15-0.47-0.25-0.71c-0.07-0.17-0.15-0.35-0.23-0.52c-2.08-0.19-4.15-0.27-6.21-0.27 C49.78,33.38,47.92,33.46,46.06,33.6L46.06,33.6z M63.13,33.25h-3.47l0.04,0.09c0.1,0.23,0.19,0.45,0.26,0.67 c0.08,0.22,0.15,0.45,0.21,0.67l0.05,0.19l0.31-0.1c0.15-0.04,0.3-0.07,0.45-0.09c0.16-0.02,0.32-0.03,0.48-0.03 c0.15,0,0.29,0.01,0.44,0.02c0.15,0.02,0.29,0.04,0.44,0.08l0.25,0.07l0.05-0.2c0.06-0.21,0.12-0.43,0.2-0.66l0.01-0.02 c0.07-0.22,0.16-0.42,0.24-0.62L63.13,33.25L63.13,33.25z"></path>
    </g>
  </symbol>


  <symbol xmlns="http://www.w3.org/2000/svg" fill="none" viewBox="0 0 24 24" id="chev">
    <path fill="#000000" fill-rule="evenodd" d="M12 21a9 9 0 1 0 0-18 9 9 0 0 0 0 18zM10.293 9.707a1 1 0 1 1 1.414-1.414l3 3a1 1 0 0 1 0 1.414l-3 3a1 1 0 0 1-1.414-1.414L12.586 12l-2.293-2.293z" clip-rule="evenodd"></path>
  </symbol>



  <symbol xmlns="http://www.w3.org/2000/svg" viewBox="0 0 24 24" id="profile">
    <path d="M1.926 7l-.556-2.999h21.256l-.556 2.999h-20.144zm1.514-5l-.439-2h17.994l-.439 2h-17.116zm-3.44 7.001l2.035 14.999h19.868l2.097-14.999h-24zm3.782 13l-1.22-9.001h18.86l-1.259 9.001h-16.381zm8.317-1.284l.004.283h-5.939l-.048-.292c-.133-.779-.177-1.224.582-1.43.842-.227 1.684-.429 1.168-1.289-1.627-2.546-.848-3.989.634-3.989 1.454 0 2.516 1.39 1.355 3.99-.348.854.5 1.056 1.401 1.289.801.207.834.654.843 1.438zm6.628-4.717h-4.784l-.028 1h4.675l.137-1zm.273-2h-5l-.028 1h4.892l.136-1zm-.548 4h-4.566l-.029 1h4.459l.136-1zm-.273 2h-4.351l-.028 1h4.241l.138-1z"></path>
  </symbol>
  <symbol clip-rule="evenodd" fill-rule="evenodd" stroke-linejoin="round" stroke-miterlimit="2" xmlns="http://www.w3.org/2000/svg" viewBox="0 0 24 24" id="dashboard">
    <path d="m11.6 11c0-.552-.448-1-1-1-1.655 0-4.945 0-6.6 0-.552 0-1 .448-1 1v9c0 .552.448 1 1 1h6.6c.552 0 1-.448 1-1 0-2.092 0-6.908 0-9zm9.4 6c0-.552-.448-1-1-1h-6c-.538 0-1 .477-1 1v3c0 .552.448 1 1 1h6c.552 0 1-.448 1-1zm0-13c0-.552-.448-1-1-1-1.537 0-4.463 0-6 0-.552 0-1 .448-1 1v9.6c0 .552.448 1 1 1h6c.552 0 1-.448 1-1 0-2.194 0-7.406 0-9.6zm-9.4 0c0-.552-.448-1-1-1-1.655 0-4.945 0-6.6 0-.552 0-1 .448-1 1v3.6c0 .552.448 1 1 1h6.6c.552 0 1-.448 1-1 0-1.017 0-2.583 0-3.6z" fill-rule="nonzero"></path>
  </symbol>

  <symbol clip-rule="evenodd" fill-rule="evenodd" stroke-linejoin="round" stroke-miterlimit="2" xmlns="http://www.w3.org/2000/svg" viewBox="0 0 24 24" id="add">
    <path d="m17.5 11c2.484 0 4.5 2.016 4.5 4.5s-2.016 4.5-4.5 4.5-4.5-2.016-4.5-4.5 2.016-4.5 4.5-4.5zm.5 4v-1.5c0-.265-.235-.5-.5-.5s-.5.235-.5.5v1.5h-1.5c-.265 0-.5.235-.5.5s.235.5.5.5h1.5v1.5c0 .265.235.5.5.5s.5-.235.5-.5c0-.592 0-1.5 0-1.5h1.5c.265 0 .5-.235.5-.5s-.235-.5-.5-.5c-.592 0-1.5 0-1.5 0zm-6.479 1c.043.522.153 1.025.321 1.5h-9.092c-.414 0-.75-.336-.75-.75s.336-.75.75-.75zm1.106-4c-.328.456-.594.96-.785 1.5h-9.092c-.414 0-.75-.336-.75-.75s.336-.75.75-.75zm7.373-3.25c0-.414-.336-.75-.75-.75h-16.5c-.414 0-.75.336-.75.75s.336.75.75.75h16.5c.414 0 .75-.336.75-.75zm0-4c0-.414-.336-.75-.75-.75h-16.5c-.414 0-.75.336-.75.75s.336.75.75.75h16.5c.414 0 .75-.336.75-.75z" fill-rule="nonzero"></path>
  </symbol>

  <symbol xmlns="http://www.w3.org/2000/svg" viewBox="0 0 22 22" id="success-icon">
    <path d="M11,22A11,11,0,1,0,0,11,11,11,0,0,0,11,22ZM5.707,11.293,8,13.586l8.293-8.293,1.414,1.414L8,16.414,4.293,12.707Z"></path>
  </symbol>

 
  <symbol xmlns="http://www.w3.org/2000/svg" viewBox="0 0 512 512" id="error-icon">
    <title>Close</title>
    <g id="Close">
      <g id="Close-2">
        <path d="M256,73.82A182.18,182.18,0,1,0,438.18,256,182.18,182.18,0,0,0,256,73.82Zm90.6147,272.7243a24.5542,24.5542,0,0,1-34.7121,0l-54.6633-54.6678-57.1419,57.1464a24.5439,24.5439,0,0,1-34.704-34.7166l57.1374-57.1284-53.2-53.2089a24.5471,24.5471,0,0,1,34.7121-34.7175l53.1963,53.2089,50.7168-50.7213a24.5471,24.5471,0,0,1,34.713,34.7166l-50.7132,50.7222,54.6588,54.65A24.56,24.56,0,0,1,346.6147,346.5445Z"></path>
      </g>
    </g>
  </symbol>

  <symbol fill="#000000" version="1.1" id="total" xmlns="http://www.w3.org/2000/svg" xmlns:xlink="http://www.w3.org/1999/xlink" xml:space="preserve" viewBox="0 0 484.21 484.21">
    <g>
      <path d="M395.527,97.043V55.352H124.537l159.46,171.507c9.983,10.749,9.848,27.458-0.319,38.026L126.017,428.861h269.504v-25.18
		c0-15.256,12.413-27.668,27.674-27.668c15.256,0,27.681,12.412,27.681,27.668v52.848c0,15.262-12.419,27.681-27.681,27.681H61.014
		c-11.106,0-21.107-6.603-25.464-16.834c-4.359-10.226-2.189-22.012,5.509-30.026l184.584-191.964L40.743,46.521
		c-7.492-8.068-9.496-19.798-5.101-29.899C40.042,6.525,50.005,0,61.014,0h362.188c15.255,0,27.68,12.413,27.68,27.68v69.363
		c0,15.259-12.419,27.677-27.68,27.677C407.94,124.72,395.527,112.308,395.527,97.043z"></path>
    </g>
  </symbol>

  <symbol fill="018965" version="1.1" id="session" xmlns="http://www.w3.org/2000/svg" xmlns:xlink="http://www.w3.org/1999/xlink" xml:space="preserve" stroke="018965" viewBox="0 0 33.375 33.375">
    <g id="SVGRepo_bgCarrier" stroke-width="0"></g>
    <g id="SVGRepo_tracerCarrier" stroke-linecap="round" stroke-linejoin="round"></g>
    <g id="SVGRepo_iconCarrier">
      <g>
        <g>
          <path d="M27.96,31.375H5.414c-1.945,0-3.664-0.979-4.7-2.464c0.14,2.481,2.184,4.464,4.7,4.464H27.96 c2.518,0,4.562-1.98,4.701-4.464C31.625,30.396,29.906,31.375,27.96,31.375z"></path>
          <path d="M27.96,1.375h-0.682V1c0-0.552-0.447-1-1-1c-0.552,0-1,0.448-1,1v0.375h-1.837V1c0-0.552-0.448-1-1-1s-1,0.448-1,1v0.375 h-1.837V1c0-0.552-0.447-1-1-1c-0.552,0-1,0.448-1,1v0.375h-1.837V1c0-0.552-0.448-1-1-1c-0.552,0-1,0.448-1,1v0.375h-1.837V1 c0-0.552-0.448-1-1-1c-0.552,0-1,0.448-1,1v0.375H8.094V1c0-0.552-0.448-1-1-1c-0.552,0-1,0.448-1,1v0.375H5.412 c-2.605,0-4.725,2.12-4.725,4.726v19.547c0,2.605,2.12,4.727,4.727,4.727H27.96c2.606,0,4.728-2.12,4.728-4.727V6.101 C32.687,3.495,30.567,1.375,27.96,1.375z M25.78,1c0-0.276,0.224-0.5,0.5-0.5s0.5,0.224,0.5,0.5v6.482c0,0.276-0.224,0.5-0.5,0.5 s-0.5-0.224-0.5-0.5V1z M21.943,1c0-0.276,0.225-0.5,0.5-0.5c0.276,0,0.5,0.224,0.5,0.5v6.482c0,0.276-0.224,0.5-0.5,0.5 c-0.275,0-0.5-0.224-0.5-0.5V1z M18.106,1c0-0.276,0.224-0.5,0.5-0.5s0.5,0.224,0.5,0.5v6.482c0,0.276-0.224,0.5-0.5,0.5 s-0.5-0.224-0.5-0.5V1z M14.269,1c0-0.276,0.224-0.5,0.5-0.5s0.5,0.224,0.5,0.5v6.482c0,0.276-0.224,0.5-0.5,0.5 s-0.5-0.224-0.5-0.5V1z M10.432,1c0-0.276,0.224-0.5,0.5-0.5s0.5,0.224,0.5,0.5v6.482c0,0.276-0.224,0.5-0.5,0.5 s-0.5-0.224-0.5-0.5V1z M6.595,1c0-0.276,0.224-0.5,0.5-0.5c0.276,0,0.5,0.224,0.5,0.5v6.482c0,0.276-0.224,0.5-0.5,0.5 c-0.276,0-0.5-0.224-0.5-0.5V1z M30.279,25.648c0,1.277-1.04,2.317-2.318,2.317H5.414c-1.278,0-2.318-1.04-2.318-2.317V6.101 c0-1.278,1.04-2.318,2.318-2.318h0.682v2.513c-0.339,0.286-0.56,0.709-0.56,1.187c0,0.86,0.699,1.56,1.56,1.56 c0.861,0,1.56-0.699,1.56-1.56c0-0.478-0.221-0.9-0.56-1.187V3.783h1.837v2.513c-0.339,0.286-0.56,0.709-0.56,1.187 c0,0.86,0.699,1.56,1.56,1.56c0.861,0,1.56-0.699,1.56-1.56c0-0.478-0.221-0.9-0.56-1.187V3.783h1.837v2.513 c-0.339,0.286-0.56,0.709-0.56,1.187c0,0.86,0.699,1.56,1.56,1.56s1.56-0.699,1.56-1.56c0-0.478-0.221-0.9-0.56-1.187V3.783h1.837 v2.513c-0.339,0.286-0.56,0.709-0.56,1.187c0,0.86,0.699,1.56,1.56,1.56s1.561-0.699,1.561-1.56c0-0.478-0.222-0.9-0.561-1.187 V3.783h1.837v2.513c-0.339,0.286-0.56,0.709-0.56,1.187c0,0.86,0.699,1.56,1.56,1.56c0.861,0,1.56-0.699,1.56-1.56 c0-0.478-0.221-0.9-0.56-1.187V3.783h1.837v2.513c-0.339,0.286-0.56,0.709-0.56,1.187c0,0.86,0.698,1.56,1.56,1.56 s1.561-0.699,1.561-1.56c0-0.478-0.221-0.9-0.561-1.187V3.783h0.682c1.277,0,2.317,1.04,2.317,2.318L30.279,25.648L30.279,25.648z "></path>
          <path d="M22.71,13.307l-7.214,7.854l-5.045-3.735c-0.666-0.494-1.604-0.354-2.098,0.312c-0.493,0.666-0.354,1.605,0.313,2.099 l6.129,4.539c0.268,0.198,0.58,0.295,0.892,0.295c0.407,0,0.812-0.165,1.105-0.485l8.127-8.849c0.562-0.61,0.521-1.559-0.09-2.119 C24.221,12.658,23.272,12.696,22.71,13.307z"></path>
        </g>
      </g>
    </g>
  </symbol>





  <symbol fill="#018965" xmlns="http://www.w3.org/2000/svg" stroke="#018965" stroke-width="0.00032" viewBox="0 0 32 32" id="school">
    <g id="SVGRepo_bgCarrier" stroke-width="0"></g>
    <g id="SVGRepo_tracerCarrier" stroke-linecap="round" stroke-linejoin="round"></g>
    <g id="SVGRepo_iconCarrier">
      <path d="M 16 4 L 3 7 L 3 9 L 16 6 L 29 9 L 29 7 Z M 10 10 C 6.773438 10 3.625 11.3125 3.625 11.3125 L 3 11.59375 L 3 27 L 14.28125 27 C 14.628906 27.597656 15.261719 28 16 28 C 16.738281 28 17.371094 27.597656 17.71875 27 L 29 27 L 29 11.59375 L 28.375 11.3125 C 28.375 11.3125 25.226563 10 22 10 C 19.082031 10 16.519531 10.980469 16 11.1875 C 15.480469 10.980469 12.917969 10 10 10 Z M 10 12 C 11.933594 12 14 12.625 15 12.96875 L 15 24.09375 C 13.886719 23.726563 12.058594 23.21875 10 23.21875 C 7.898438 23.21875 6.1875 23.703125 5 24.09375 L 5 12.96875 C 5.769531 12.691406 7.800781 12 10 12 Z M 22 12 C 24.199219 12 26.230469 12.691406 27 12.96875 L 27 24.09375 C 25.8125 23.703125 24.101563 23.21875 22 23.21875 C 19.941406 23.21875 18.113281 23.726563 17 24.09375 L 17 12.96875 C 18 12.625 20.066406 12 22 12 Z"></path>
    </g>
  </symbol>






  <symbol fill="#03664d" xmlns="http://www.w3.org/2000/svg" viewBox="0 0 1024 1024" id="calender">
    <g id="SVGRepo_bgCarrier" stroke-width="0"></g>
    <g id="SVGRepo_tracerCarrier" stroke-linecap="round" stroke-linejoin="round"></g>
    <g id="SVGRepo_iconCarrier">
      <path d="M960 95.888l-256.224.001V32.113c0-17.68-14.32-32-32-32s-32 14.32-32 32v63.76h-256v-63.76c0-17.68-14.32-32-32-32s-32 14.32-32 32v63.76H64c-35.344 0-64 28.656-64 64v800c0 35.343 28.656 64 64 64h896c35.344 0 64-28.657 64-64v-800c0-35.329-28.656-63.985-64-63.985zm0 863.985H64v-800h255.776v32.24c0 17.679 14.32 32 32 32s32-14.321 32-32v-32.224h256v32.24c0 17.68 14.32 32 32 32s32-14.32 32-32v-32.24H960v799.984zM736 511.888h64c17.664 0 32-14.336 32-32v-64c0-17.664-14.336-32-32-32h-64c-17.664 0-32 14.336-32 32v64c0 17.664 14.336 32 32 32zm0 255.984h64c17.664 0 32-14.32 32-32v-64c0-17.664-14.336-32-32-32h-64c-17.664 0-32 14.336-32 32v64c0 17.696 14.336 32 32 32zm-192-128h-64c-17.664 0-32 14.336-32 32v64c0 17.68 14.336 32 32 32h64c17.664 0 32-14.32 32-32v-64c0-17.648-14.336-32-32-32zm0-255.984h-64c-17.664 0-32 14.336-32 32v64c0 17.664 14.336 32 32 32h64c17.664 0 32-14.336 32-32v-64c0-17.68-14.336-32-32-32zm-256 0h-64c-17.664 0-32 14.336-32 32v64c0 17.664 14.336 32 32 32h64c17.664 0 32-14.336 32-32v-64c0-17.68-14.336-32-32-32zm0 255.984h-64c-17.664 0-32 14.336-32 32v64c0 17.68 14.336 32 32 32h64c17.664 0 32-14.32 32-32v-64c0-17.648-14.336-32-32-32z"></path>
    </g>
  </symbol>
  <symbol fill="#03664d" version="1.1" id="van" xmlns="http://www.w3.org/2000/svg" xmlns:xlink="http://www.w3.org/1999/xlink" enable-background="new 0 0 40 40" xml:space="preserve" stroke="#03664d" stroke-width="0.32" viewBox="0 0 40 40">
    <g id="SVGRepo_bgCarrier" stroke-width="0"></g>
    <g id="SVGRepo_tracerCarrier" stroke-linecap="round" stroke-linejoin="round"></g>
    <g id="SVGRepo_iconCarrier">
      <g>
        <g>
          <g>
            <g>
              <path d="M11.7,24.5c-0.8,0-1.5-0.7-1.5-1.5v-1.9c0-0.2,0-0.3,0.1-0.5l1.2-3c0.5-1.3,1.8-2.2,3.3-2.2h2l-0.5,1h-1.5 c-1,0-1.9,0.6-2.3,1.6l-1.2,3l0,1.9c0,0.3,0.2,0.5,0.5,0.5V24.5z"></path>
            </g>
            <g>
              <path d="M13.7,26.5c-1.4,0-2.5-1.1-2.5-2.5s1.1-2.5,2.5-2.5s2.5,1.1,2.5,2.5S15.1,26.5,13.7,26.5z M13.7,22.5 c-0.8,0-1.5,0.7-1.5,1.5s0.7,1.5,1.5,1.5s1.5-0.7,1.5-1.5S14.5,22.5,13.7,22.5z"></path>
            </g>
            <g>
              <path d="M26.7,23.5h1c0.3,0,0.5-0.2,0.5-0.5v-7c0-0.8-0.7-1.5-1.5-1.5h-8c-0.8,0-1.5,0.7-1.5,1.5v7.5h5.5v1h-6 c-0.3,0-0.5-0.2-0.5-0.5v-8c0-1.4,1.1-2.5,2.5-2.5h8c1.4,0,2.5,1.1,2.5,2.5v7c0,0.8-0.7,1.5-1.5,1.5h-1V23.5z"></path>
            </g>
            <g>
              <path d="M24.7,26.5c-1.4,0-2.5-1.1-2.5-2.5s1.1-2.5,2.5-2.5s2.5,1.1,2.5,2.5S26.1,26.5,24.7,26.5z M24.7,22.5 c-0.8,0-1.5,0.7-1.5,1.5s0.7,1.5,1.5,1.5s1.5-0.7,1.5-1.5S25.5,22.5,24.7,22.5z"></path>
            </g>
          </g>
          <g>
            <path d="M15.7,23.5h1c0.3,0,0.5,0.2,0.5,0.5s-0.2,0.5-0.5,0.5h-1V23.5z"></path>
          </g>
        </g>
      </g>
    </g>
  </symbol>
  <symbol fill="#03664d" version="1.1" id="movement" xmlns="http://www.w3.org/2000/svg" xmlns:xlink="http://www.w3.org/1999/xlink" xml:space="preserve" viewBox="0 0 473.555 473.555">
    <g id="SVGRepo_bgCarrier" stroke-width="0"></g>
    <g id="SVGRepo_tracerCarrier" stroke-linecap="round" stroke-linejoin="round"></g>
    <g id="SVGRepo_iconCarrier">
      <g>
        <path d="M473.555,258.357l-83.906-54.618v31.301h-32.043c-17.201-50.205-64.866-86.396-120.828-86.396 S133.151,184.835,115.95,235.04H83.906v-31.301L0,258.357l83.906,54.618v-31.301h77.104l-0.065-0.35h0.095v-5 c0-41.761,33.976-75.736,75.736-75.736s75.736,33.976,75.736,75.736v2.539l-0.563,2.811h77.697v31.301L473.555,258.357z"></path>
        <path d="M236.777,230.282c-26.089,0-47.313,21.225-47.313,47.313s21.225,47.314,47.313,47.314s47.313-21.226,47.313-47.314 S262.866,230.282,236.777,230.282z"></path>
      </g>
    </g>
  </symbol>
  <symbol version="1.1" id="location" xmlns="http://www.w3.org/2000/svg" xmlns:xlink="http://www.w3.org/1999/xlink" xml:space="preserve" fill="#03664d" viewBox="0 0 32 32">
    <g id="SVGRepo_bgCarrier" stroke-width="0"></g>
    <g id="SVGRepo_tracerCarrier" stroke-linecap="round" stroke-linejoin="round"></g>
    <g id="SVGRepo_iconCarrier">
      <path d="M16,3C10.5,3,6,7.5,6,13c0,8.4,9,15.5,9.4,15.8c0.2,0.1,0.4,0.2,0.6,0.2s0.4-0.1,0.6-0.2C17,28.5,26,21.4,26,13 C26,7.5,21.5,3,16,3z M16,17c-2.2,0-4-1.8-4-4s1.8-4,4-4s4,1.8,4,4S18.2,17,16,17z"></path>
    </g>
  </symbol>
  <symbol fill="#03664d" version="1.1" id="customer" xmlns="http://www.w3.org/2000/svg" xmlns:xlink="http://www.w3.org/1999/xlink" enable-background="new 0 0 512 512" xml:space="preserve" stroke="#03664d" stroke-width="0.00512" viewBox="0 0 512 512">
    <g id="SVGRepo_bgCarrier" stroke-width="0"></g>
    <g id="SVGRepo_tracerCarrier" stroke-linecap="round" stroke-linejoin="round"></g>
    <g id="SVGRepo_iconCarrier">
      <g>
        <path d="M256,0C114.609,0,0,114.609,0,256s114.609,256,256,256s256-114.609,256-256S397.391,0,256,0z M256,472 c-119.297,0-216-96.703-216-216S136.703,40,256,40s216,96.703,216,216S375.297,472,256,472z"></path>
        <path d="M325.906,306.188c-16-2.734-37.906-18.25-37.906-24.984v-17.016c0-6.344,8.594-18.219,12.25-29.156 c0.344-1.031,2.547,0.156,4.688-2.453c4.031-4.969,4.625-12.516,5.547-15.953c1.469-5.406-5.094-5.625-5.094-5.625 s4.891-28.375,0.547-46.297c-5.875-24.406-37.5-36.703-49.875-36.703c-12.391,0-43.969,12.297-49.875,36.703 c-4.344,17.922,0.656,46.297,0.656,46.297s-6.328,0.219-4.875,5.625c0.938,3.438,1.969,10.984,6.031,15.953 c2.125,2.609,3.406,1.422,3.75,2.453c3.656,10.938,12.25,22.812,12.25,29.156v17.016c0,6.734-21.922,22.25-37.922,24.984 c-20.547,3.5-30.703,17.703-25.891,53.125c2.406,17.688,49.094,25.297,95.344,24.641c46.25,0.656,93.641-6.953,96.047-24.641 C356.406,323.891,346.469,309.688,325.906,306.188z"></path>
      </g>
    </g>
  </symbol>
  <symbol fill="#03664d" version="1.1" id="driver" xmlns="http://www.w3.org/2000/svg" xmlns:xlink="http://www.w3.org/1999/xlink" xml:space="preserve" viewBox="0 0 438.775 438.775">
    <g id="SVGRepo_bgCarrier" stroke-width="0"></g>
    <g id="SVGRepo_tracerCarrier" stroke-linecap="round" stroke-linejoin="round"></g>
    <g id="SVGRepo_iconCarrier">
      <path d="M135.646,150.005c10.719,6.367,22.735,9.551,34.752,9.551c12.018,0,24.036-3.185,34.754-9.552 c25.497-15.148,39.324-45.114,37.937-82.214c-1.679-44.887-38.677-66.603-72.341-67.784c-0.234-0.008-0.467-0.008-0.701,0 C136.382,1.188,99.384,22.903,97.705,67.79C96.318,104.891,110.148,134.856,135.646,150.005z M170.397,19.79 c25.114,1.012,50.86,16.348,52.649,47.348h-7.381c-11.385-13-27.598-20-45.233-20c-0.001,0-0.002,0-0.003,0 c-17.672,0-33.909,7-45.3,20h-7.382C119.536,36.138,145.282,20.802,170.397,19.79z M129.925,87.138c3.188,0,6.184-1.411,8.067-3.982 c7.617-10.399,19.441-16.31,32.438-16.309c12.956,0.001,24.755,5.884,32.37,16.281c1.883,2.572,4.88,4.01,8.067,4.01h11.303 c-2.984,21-12.474,36.794-27.235,45.563c-15.136,8.992-33.939,8.938-49.075-0.054c-14.762-8.77-24.252-24.509-27.237-45.509H129.925 z M380.67,326.878c0,61.7-50.196,111.897-111.896,111.897c-5.522,0-10-4.478-10-10s4.478-10,10-10 c50.672,0,91.896-41.225,91.896-91.897c0-5.522,4.478-10,10-10S380.67,321.355,380.67,326.878z M339.234,324.878 c0-4.585-0.429-9.073-1.246-13.424c-0.028-0.172-0.062-0.343-0.099-0.515c-6.515-33.312-35.925-58.523-71.114-58.523 c-39.958,0-72.467,32.506-72.467,72.462c0,39.954,32.509,72.46,72.467,72.46C306.729,397.338,339.234,364.832,339.234,324.878z M318.802,327.059c-1.009,24.534-18.414,44.776-42.414,49.323v-41.769C291.388,333.821,305.631,331.262,318.802,327.059z M266.775,272.416c22.655,0,42.002,14.438,49.326,34.595c-14.874,5.163-31.744,7.867-49.326,7.867 c-17.581,0-34.455-2.705-49.333-7.869C224.767,286.853,244.116,272.416,266.775,272.416z M256.388,376.382 c-23-4.547-41.416-24.789-42.422-49.326c13.173,4.204,27.422,6.766,42.422,7.558V376.382z M101.505,248.654L80.128,364.138h84.43 c5.522,0,10,4.477,10,10c0,5.522-4.477,10-10,10H68.106c-2.971,0-5.788-1.393-7.688-3.677c-1.899-2.284-2.686-5.365-2.145-8.287 L81.839,244.94c5.605-30.255,27.82-52.549,60.95-61.167c17.559-4.568,36.928-4.628,54.538-0.174 c19.041,4.817,34.973,14.441,46.073,27.832c3.524,4.252,2.935,10.556-1.317,14.08c-4.253,3.527-10.556,2.935-14.08-1.316 c-16.834-20.305-49.804-28.968-80.179-21.066c-9.588,2.494-17.967,6.422-24.9,11.552l51.579,51.586 c3.905,3.905,3.905,10.236-0.001,14.142c-3.904,3.906-10.237,3.905-14.142-0.001l-51.198-51.204 C105.415,234.994,102.818,241.57,101.505,248.654z"></path>
    </g>
  </symbol>
  <symbol fill="#03664d" id="request" xmlns="http://www.w3.org/2000/svg" viewBox="0 0 16 16">
    <g id="SVGRepo_bgCarrier" stroke-width="0"></g>
    <g id="SVGRepo_tracerCarrier" stroke-linecap="round" stroke-linejoin="round"></g>
    <g id="SVGRepo_iconCarrier">
      <path id="Path_46" d="M-17,11a2,2,0,0,0,2-2,2,2,0,0,0-2-2,2,2,0,0,0-2,2A2,2,0,0,0-17,11Zm0-3a1,1,0,0,1,1,1,1,1,0,0,1-1,1,1,1,0,0,1-1-1A1,1,0,0,1-17,8Zm2.5,4h-5A2.5,2.5,0,0,0-22,14.5,1.5,1.5,0,0,0-20.5,16h7A1.5,1.5,0,0,0-12,14.5,2.5,2.5,0,0,0-14.5,12Zm1,3h-7a.5.5,0,0,1-.5-.5A1.5,1.5,0,0,1-19.5,13h5A1.5,1.5,0,0,1-13,14.5.5.5,0,0,1-13.5,15ZM-6,2.5v5A2.5,2.5,0,0,1-8.5,10h-2.793l-1.853,1.854A.5.5,0,0,1-13.5,12a.489.489,0,0,1-.191-.038A.5.5,0,0,1-14,11.5v-2a.5.5,0,0,1,.5-.5.5.5,0,0,1,.5.5v.793l1.146-1.147A.5.5,0,0,1-11.5,9h3A1.5,1.5,0,0,0-7,7.5v-5A1.5,1.5,0,0,0-8.5,1h-7A1.5,1.5,0,0,0-17,2.5v3a.5.5,0,0,1-.5.5.5.5,0,0,1-.5-.5v-3A2.5,2.5,0,0,1-15.5,0h7A2.5,2.5,0,0,1-6,2.5ZM-11.5,2V4.5H-9a.5.5,0,0,1,.5.5.5.5,0,0,1-.5.5h-2.5V8a.5.5,0,0,1-.5.5.5.5,0,0,1-.5-.5V5.5H-15a.5.5,0,0,1-.5-.5.5.5,0,0,1,.5-.5h2.5V2a.5.5,0,0,1,.5-.5A.5.5,0,0,1-11.5,2Z" transform="translate(22)"></path>
    </g>
  </symbol>
  <symbol fill="#03664d" xmlns="http://www.w3.org/2000/svg" enable-background="new 0 0 52 52" xml:space="preserve" viewBox="0 0 52 52" id="display">
    <g id="SVGRepo_bgCarrier" stroke-width="0"></g>
    <g id="SVGRepo_tracerCarrier" stroke-linecap="round" stroke-linejoin="round"></g>
    <g id="SVGRepo_iconCarrier">
      <path d="M43.5,2.5H8.6c-3.4,0-6.1,2.7-6.1,6.1v34.7c0,3.4,2.7,6.1,6.1,6.1h34.8c3.4,0,6.1-2.7,6.1-6.1V8.6 C49.6,5.2,46.8,2.5,43.5,2.5z M10.6,12.7c0-1.1,0.9-2,2-2h22.9c1.1,0,2,0.9,2,2v2.1c0,1.1-0.9,2-2,2h-23c-1.1,0-2-0.9-2-2V12.7z M34.7,39.3c0,1.1-0.9,2-2,2H12.7c-1.1,0-2-0.9-2-2v-2c0-1.1,0.9-2,2-2h20c1.1,0,2,0.9,2,2V39.3z M41.4,27c0,1.1-0.9,2-2,2H12.7 c-1.1,0-2-0.9-2-2v-2c0-1.1,0.9-2,2-2h26.6c1.1,0,2,0.9,2,2V27z"></path>
    </g>
  </symbol>


  <symbol xmlns="http://www.w3.org/2000/svg" fill="#028766" viewBox="0 0 24 24" id="vehicle">
    <g id="SVGRepo_bgCarrier" stroke-width="0"></g>
    <g id="SVGRepo_tracerCarrier" stroke-linecap="round" stroke-linejoin="round"></g>
    <g id="SVGRepo_iconCarrier">
      <path d="M16,6l3,4h2c1.11,0,2,0.89,2,2v3h-2c0,1.66-1.34,3-3,3s-3-1.34-3-3H9c0,1.66-1.34,3-3,3s-3-1.34-3-3H1v-3c0-1.11,0.89-2,2-2 l3-4H16 M10.5,7.5H6.75L4.86,10h5.64V7.5 M12,7.5V10h5.14l-1.89-2.5H12 M6,13.5c-0.83,0-1.5,0.67-1.5,1.5s0.67,1.5,1.5,1.5 s1.5-0.67,1.5-1.5S6.83,13.5,6,13.5 M18,13.5c-0.83,0-1.5,0.67-1.5,1.5s0.67,1.5,1.5,1.5s1.5-0.67,1.5-1.5S18.83,13.5,18,13.5z"></path>
      <rect fill="none" width="24" height="24"></rect>
    </g>
  </symbol>



     
  <symbol fill="#028766" id="request-approve" xmlns="http://www.w3.org/2000/svg" viewBox="0 0 16 16">
    <g id="SVGRepo_bgCarrier" stroke-width="0"></g>
    <g id="SVGRepo_tracerCarrier" stroke-linecap="round" stroke-linejoin="round"></g>
    <g id="SVGRepo_iconCarrier">
      <path id="Path_47" d="M-19,12a2,2,0,0,0,2-2,2,2,0,0,0-2-2,2,2,0,0,0-2,2A2,2,0,0,0-19,12Zm0-3a1,1,0,0,1,1,1,1,1,0,0,1-1,1,1,1,0,0,1-1-1A1,1,0,0,1-19,9Zm2.5,4h-5A2.5,2.5,0,0,0-24,15.5,1.5,1.5,0,0,0-22.5,17h7A1.5,1.5,0,0,0-14,15.5,2.5,2.5,0,0,0-16.5,13Zm1,3h-7a.5.5,0,0,1-.5-.5A1.5,1.5,0,0,1-21.5,14h5A1.5,1.5,0,0,1-15,15.5.5.5,0,0,1-15.5,16ZM-8,3.5v5A2.5,2.5,0,0,1-10.5,11h-2.793l-1.853,1.854A.5.5,0,0,1-15.5,13a.489.489,0,0,1-.191-.038A.5.5,0,0,1-16,12.5v-2a.5.5,0,0,1,.5-.5.5.5,0,0,1,.5.5v.793l1.146-1.147A.5.5,0,0,1-13.5,10h3A1.5,1.5,0,0,0-9,8.5v-5A1.5,1.5,0,0,0-10.5,2h-7A1.5,1.5,0,0,0-19,3.5v3a.5.5,0,0,1-.5.5.5.5,0,0,1-.5-.5v-3A2.5,2.5,0,0,1-17.5,1h7A2.5,2.5,0,0,1-8,3.5Zm-6.854,4.354-2-2a.5.5,0,0,1,0-.708.5.5,0,0,1,.708,0L-14.5,6.793l2.646-2.647a.5.5,0,0,1,.708,0,.5.5,0,0,1,0,.708l-3,3A.5.5,0,0,1-14.5,8,.5.5,0,0,1-14.854,7.854Z" transform="translate(24 -1)"></path>
    </g>
  </symbol>



</svg>